# xmcd
#
# Track frame offsets:
#	150
#	12377
#	25017
#	39407
#	53227
#	67872
#	79045
#	95545
#	105795
#	120847
#	131705
#	145362
#	159930
#
# Disc length: 2358 seconds
#
# Revision: 1
# Processed by: cddbd v1.5.2PL0 Copyright (c) Steve Scherf et al.
# Submitted via: audiograbber 1.83.01
#
DISCID=9509340d
DTITLE=Kevin Henderson - Somewhere in the Country
DYEAR=1900
DGENRE=
TTITLE0=Love has taken its time
TTITLE1=Oh lonesome me
TTITLE2=Come on home to Alabama
TTITLE3=Jambalaya
TTITLE4=Annie's Song
TTITLE5=Some broken Hearts
TTITLE6=We want to stay a little bit longer
TTITLE7=Ring of Fire
TTITLE8=It's a little more like Heaven
TTITLE9=Winners know how to fight
TTITLE10=This time it's me
TTITLE11=Lucille
TTITLE12=(Another) 1000 Mile Day
EXTD=
EXTT0=
EXTT1=
EXTT2=
EXTT3=
EXTT4=
EXTT5=
EXTT6=
EXTT7=
EXTT8=
EXTT9=
EXTT10=
EXTT11=
EXTT12=
PLAYORDER=
